<svg width="18" height="18" viewBox="0 0 18 18" fill="none" xmlns="http://www.w3.org/2000/svg">
<path d="M6.35 2H12.65C15.05 2 17 3.95 17 6.35V12.65C17 13.8037 16.5417 14.9101 15.7259 15.7259C14.9101 16.5417 13.8037 17 12.65 17H6.35C3.95 17 2 15.05 2 12.65V6.35C2 5.19631 2.4583 4.08987 3.27409 3.27409C4.08987 2.4583 5.19631 2 6.35 2ZM6.2 3.5C5.48392 3.5 4.79716 3.78446 4.29081 4.29081C3.78446 4.79716 3.5 5.48392 3.5 6.2V12.8C3.5 14.2925 4.7075 15.5 6.2 15.5H12.8C13.5161 15.5 14.2028 15.2155 14.7092 14.7092C15.2155 14.2028 15.5 13.5161 15.5 12.8V6.2C15.5 4.7075 14.2925 3.5 12.8 3.5H6.2ZM13.4375 4.625C13.6861 4.625 13.9246 4.72377 14.1004 4.89959C14.2762 5.0754 14.375 5.31386 14.375 5.5625C14.375 5.81114 14.2762 6.0496 14.1004 6.22541C13.9246 6.40123 13.6861 6.5 13.4375 6.5C13.1889 6.5 12.9504 6.40123 12.7746 6.22541C12.5988 6.0496 12.5 5.81114 12.5 5.5625C12.5 5.31386 12.5988 5.0754 12.7746 4.89959C12.9504 4.72377 13.1889 4.625 13.4375 4.625ZM9.5 5.75C10.4946 5.75 11.4484 6.14509 12.1517 6.84835C12.8549 7.55161 13.25 8.50544 13.25 9.5C13.25 10.4946 12.8549 11.4484 12.1517 12.1517C11.4484 12.8549 10.4946 13.25 9.5 13.25C8.50544 13.25 7.55161 12.8549 6.84835 12.1517C6.14509 11.4484 5.75 10.4946 5.75 9.5C5.75 8.50544 6.14509 7.55161 6.84835 6.84835C7.55161 6.14509 8.50544 5.75 9.5 5.75ZM9.5 7.25C8.90326 7.25 8.33097 7.48705 7.90901 7.90901C7.48705 8.33097 7.25 8.90326 7.25 9.5C7.25 10.0967 7.48705 10.669 7.90901 11.091C8.33097 11.5129 8.90326 11.75 9.5 11.75C10.0967 11.75 10.669 11.5129 11.091 11.091C11.5129 10.669 11.75 10.0967 11.75 9.5C11.75 8.90326 11.5129 8.33097 11.091 7.90901C10.669 7.48705 10.0967 7.25 9.5 7.25Z" fill="black"/>
</svg>
