<svg width="18" height="18" viewBox="0 0 18 18" fill="none" xmlns="http://www.w3.org/2000/svg">
<path d="M16.7775 2.15317C16.689 2.07825 16.5812 2.02842 16.4659 2.00906C16.3507 1.98969 16.2322 2.00152 16.1232 2.04327L1.6476 7.59502C1.44245 7.6732 1.26876 7.81458 1.15269 7.99787C1.03662 8.18116 0.984448 8.39644 1.00403 8.6113C1.02361 8.82617 1.11388 9.02898 1.26125 9.18921C1.40863 9.34945 1.60513 9.45842 1.82117 9.49974L5.57186 10.2214V14.32C5.57112 14.5432 5.63881 14.7615 5.76617 14.9466C5.89353 15.1317 6.07467 15.2751 6.28614 15.3581C6.49727 15.4426 6.72946 15.4629 6.95252 15.4163C7.17557 15.3697 7.37917 15.2585 7.53684 15.097L9.3454 13.2588L12.2147 15.72C12.4217 15.8999 12.6887 15.9995 12.9654 16C13.0866 15.9999 13.2071 15.9812 13.3225 15.9447C13.511 15.8861 13.6806 15.7801 13.8143 15.6372C13.9481 15.4944 14.0413 15.3197 14.0847 15.1306L16.9839 2.76988C17.0099 2.6584 17.0043 2.54211 16.968 2.43347C16.9316 2.32483 16.8658 2.22793 16.7775 2.15317ZM12.4104 4.6732L6.01114 9.16444L2.46831 8.48333L12.4104 4.6732ZM6.7147 14.32V10.9964L8.48541 12.5182L6.7147 14.32ZM12.9668 14.88L7.06113 9.80494L15.5611 3.83459L12.9668 14.88Z" fill="black"/>
</svg>
