<svg width="20" height="20" viewBox="0 0 20 20" fill="none" xmlns="http://www.w3.org/2000/svg">
<path fill-rule="evenodd" clip-rule="evenodd" d="M18.849 13.7681C18.4062 12.8847 17.8226 12.0777 17.1208 11.3781C16.8861 11.1154 16.6403 10.8625 16.3841 10.6202L16.3532 10.5904C16.258 10.4989 16.1642 10.4061 16.0715 10.3122C17.0309 8.99068 17.8519 7.5758 18.5217 6.08945L18.5486 6.02978L18.5673 5.96688C18.6561 5.67419 18.757 5.11782 18.3988 4.61467C18.0276 4.0954 17.4342 4.00187 17.0361 4.00187H15.207C14.824 3.98458 14.4453 4.08774 14.1251 4.29659C13.8049 4.50543 13.5596 4.80926 13.4243 5.16459C13.0306 6.09319 12.5377 6.97739 11.9541 7.80208V5.67903C11.9541 5.40487 11.9281 4.94527 11.6309 4.55823C11.276 4.09379 10.7624 4.00187 10.4058 4.00187H7.50296C7.12417 3.99323 6.75654 4.12923 6.47619 4.38171C6.19585 4.63418 6.02428 4.98378 5.997 5.35811L5.99456 5.39439V5.43068C5.99456 5.82175 6.15085 6.11041 6.27621 6.29183C6.33238 6.37327 6.39181 6.44745 6.43007 6.49422L6.43821 6.5047C6.47891 6.5547 6.50577 6.58775 6.53263 6.62485C6.60427 6.71999 6.70602 6.86836 6.73533 7.25055V8.43827C6.15262 7.47175 5.67483 6.44684 5.30995 5.38068L5.30344 5.36295L5.29693 5.34601C5.19762 5.08879 5.03888 4.71466 4.72059 4.42922C4.34939 4.09459 3.90981 4.00187 3.51012 4.00187H1.65412C1.24954 4.00187 0.761937 4.0954 0.398063 4.47518C0.0407018 4.84932 0 5.29763 0 5.53469V5.64274L0.022793 5.74756C0.536694 8.11072 1.5957 10.324 3.11694 12.2143C3.81243 13.3007 4.75664 14.2094 5.87298 14.8667C6.98932 15.524 8.24635 15.9115 9.54212 15.9976L9.5755 16H9.60969C10.2007 16 10.8169 15.9492 11.2801 15.6436C11.9045 15.2308 11.9541 14.5978 11.9541 14.2817V13.3641C12.1145 13.4931 12.3131 13.6657 12.5565 13.8979C12.8512 14.1898 13.0856 14.443 13.2867 14.6639L13.3941 14.7816C13.5504 14.9542 13.7043 15.1243 13.8443 15.2638C14.0201 15.4388 14.2375 15.6315 14.5094 15.7742C14.8049 15.9282 15.115 15.9984 15.4439 15.9984H17.3007C17.6922 15.9984 18.2531 15.9065 18.6479 15.4533C19.0777 14.9598 19.0452 14.3543 18.91 13.9197L18.8856 13.8415L18.849 13.7681ZM14.1927 13.8536C13.9404 13.5742 13.6806 13.3016 13.4137 13.0359L13.4112 13.0335C12.3066 11.9789 11.7913 11.7958 11.4266 11.7958C11.2321 11.7958 11.018 11.8168 10.8788 11.9893C10.8161 12.0716 10.775 12.168 10.7591 12.2699C10.7395 12.3882 10.7308 12.5081 10.7331 12.6279V14.2817C10.7331 14.4873 10.6989 14.5736 10.6028 14.6365C10.475 14.7212 10.2023 14.7897 9.61701 14.7897C8.50521 14.7148 7.42724 14.3795 6.47172 13.8115C5.51621 13.2435 4.71043 12.459 4.12065 11.5225L4.11413 11.512L4.10599 11.5023C2.68885 9.75513 1.70121 7.70552 1.22105 5.51534C1.22431 5.41052 1.2471 5.34682 1.28455 5.30812C1.32281 5.2678 1.41642 5.21136 1.65412 5.21136H3.51012C3.71607 5.21136 3.82352 5.25651 3.90086 5.32505C3.98715 5.40407 4.06366 5.53711 4.15484 5.77417C4.6107 7.10138 5.22611 8.34313 5.80977 9.25508C6.1012 9.71146 6.38774 10.0912 6.6466 10.3597C6.77603 10.4936 6.90221 10.6049 7.0235 10.6839C7.1399 10.7597 7.27259 10.8202 7.40935 10.8202C7.48099 10.8202 7.56483 10.8121 7.64542 10.7774C7.73245 10.7393 7.8041 10.6735 7.84893 10.5904C7.93278 10.4388 7.95638 10.2154 7.95638 9.92272V7.20298C7.91324 6.54341 7.71217 6.17169 7.5168 5.90802C7.47724 5.85528 7.43653 5.8034 7.3947 5.7524L7.38412 5.7395C7.3494 5.69774 7.31627 5.6547 7.2848 5.61049C7.24473 5.56118 7.22062 5.50104 7.21561 5.43793C7.222 5.37386 7.25286 5.31463 7.30189 5.27236C7.35092 5.23009 7.41441 5.20798 7.47936 5.21055H10.4058C10.5735 5.21055 10.6297 5.25087 10.6582 5.28876C10.6989 5.34117 10.7331 5.45003 10.7331 5.67903V9.33007C10.7331 9.76387 10.9349 10.0574 11.228 10.0574C11.565 10.0574 11.8084 9.85499 12.2333 9.43409L12.2407 9.42602L12.2472 9.41877C13.2004 8.26756 13.9792 6.98493 14.559 5.61129L14.5623 5.60162C14.6059 5.48025 14.6883 5.37634 14.7971 5.30573C14.9058 5.23512 15.0349 5.2017 15.1647 5.21055H17.0369C17.2909 5.21055 17.374 5.27506 17.4016 5.31295C17.4301 5.35327 17.4505 5.43955 17.4016 5.60887C16.733 7.08958 15.9064 8.4952 14.9359 9.80177L14.9294 9.81145C14.8358 9.95417 14.7324 10.1122 14.7178 10.2928C14.7015 10.488 14.7861 10.6645 14.9351 10.8548C15.0434 11.0129 15.2672 11.2298 15.4944 11.4499L15.5155 11.4709C15.7532 11.7015 16.0113 11.9514 16.218 12.1933L16.2237 12.199L16.2294 12.2054C16.846 12.8146 17.3587 13.5188 17.7476 14.2906C17.8095 14.5002 17.772 14.6083 17.7232 14.6639C17.667 14.7284 17.5408 14.7889 17.3015 14.7889H15.4439C15.3173 14.792 15.192 14.7628 15.08 14.7042C14.9428 14.6252 14.8182 14.5262 14.7104 14.4107C14.594 14.2954 14.4679 14.1559 14.3132 13.9858L14.1935 13.8536H14.1927Z" fill="black"/>
</svg>
