<svg width="50" height="55" viewBox="0 0 50 55" fill="none" xmlns="http://www.w3.org/2000/svg">
<path d="M42.1875 6.30225H7.81249C7.25996 6.30225 6.73005 6.54369 6.33935 6.97346C5.94865 7.40323 5.72916 7.98613 5.72916 8.59391V46.4064C5.72916 47.0142 5.94865 47.5971 6.33935 48.0269C6.73005 48.4566 7.25996 48.6981 7.81249 48.6981H42.1875C42.74 48.6981 43.2699 48.4566 43.6606 48.0269C44.0513 47.5971 44.2708 47.0142 44.2708 46.4064V8.59391C44.2708 7.98613 44.0513 7.40323 43.6606 6.97346C43.2699 6.54369 42.74 6.30225 42.1875 6.30225Z" stroke="black" stroke-linecap="round" stroke-linejoin="round"/>
<path d="M26.6437 41.4126C26.6021 35.9252 27.751 31.3912 34.0208 31.6753C42.9646 6.60334 6.49582 7.55896 16.2167 31.5264C19.1646 31.3247 24.051 33.2554 23.2167 42.0062M44.2708 38.3613L5.72916 45.0346M5.72916 12.6499L18.5885 15.2739M33.7031 17.7947L44.2708 19.4917" stroke="black" stroke-linecap="round" stroke-linejoin="round"/>
</svg>
