<svg width="54" height="58" viewBox="0 0 54 58" fill="none" xmlns="http://www.w3.org/2000/svg">
<path d="M20.1341 40.3566C21.4033 42.0936 22.5585 43.9234 23.5912 45.8327C24.382 47.4863 25.0163 49.2209 25.4846 51.0104C25.8806 52.2067 26.2383 52.5632 27.0056 52.5632C27.8426 52.5632 28.2217 51.9566 28.5153 51.0165C28.9746 49.2647 29.5913 47.565 30.357 45.9415C31.862 43.1931 33.5759 40.5831 35.4813 38.1381C37.4028 35.7002 39.1022 33.0702 40.5562 30.2839C41.7172 27.6871 42.3153 24.8416 42.3056 21.9609C42.3214 19.2874 41.7294 16.6503 40.581 14.2783" stroke="black" stroke-linecap="round" stroke-linejoin="round"/>
<path d="M13.2019 29.6985C14.841 33.721 18.0022 37.2566 20.1409 40.3584L31.5023 25.9043C30.9458 26.6045 30.2554 27.1678 29.4781 27.5558C28.7008 27.9439 27.8549 28.1475 26.9977 28.153C26.2296 28.1569 25.4684 27.9973 24.7579 27.6836C24.0475 27.3699 23.4019 26.9083 22.8584 26.3253C22.3149 25.7423 21.8842 25.0495 21.5912 24.2868C21.2981 23.5242 21.1486 22.7068 21.1511 21.8818C21.1704 20.4107 21.6432 18.988 22.4955 17.8363M31.6283 6.18069C33.545 6.82784 35.3233 7.87649 36.8605 9.26606C38.3978 10.6556 39.6634 12.3586 40.5844 14.2765L31.5056 25.8971C32.3531 24.7365 32.8247 23.3106 32.8489 21.8359C32.8347 20.1792 32.2147 18.595 31.1225 17.4251C30.0303 16.2552 28.5537 15.5934 27.0112 15.5827C26.1544 15.5952 25.3097 15.8017 24.5322 16.1885C23.7547 16.5754 23.0618 17.1339 22.4989 17.8278M15.2831 11.3161C16.7085 9.47345 18.4947 7.99122 20.5146 6.9751C22.5344 5.95898 24.7381 5.434 26.9685 5.43757C28.545 5.43284 30.1131 5.68503 31.6193 6.18552L22.491 17.8339" stroke="black" stroke-linecap="round" stroke-linejoin="round"/>
<path d="M13.2019 29.6983C12.1845 27.256 11.6703 24.6066 11.6944 21.9311C11.6773 18.0469 12.9497 14.2834 15.2831 11.3159L22.4955 17.8349L13.2019 29.6983Z" stroke="black" stroke-linecap="round" stroke-linejoin="round"/>
</svg>
